<?xml version="1.0" encoding="UTF-8" standalone="no"?>
<!-- Created with Inkscape (http://www.inkscape.org/) -->

<svg
   width="200"
   height="200"
   viewBox="0 0 52.916665 52.916668"
   version="1.1"
   id="svg14099"
   inkscape:version="1.1.2 (0a00cf5339, 2022-02-04)"
   sodipodi:docname="logo.svg"
   xmlns:inkscape="http://www.inkscape.org/namespaces/inkscape"
   xmlns:sodipodi="http://sodipodi.sourceforge.net/DTD/sodipodi-0.dtd"
   xmlns="http://www.w3.org/2000/svg"
   xmlns:svg="http://www.w3.org/2000/svg">
  <sodipodi:namedview
     id="namedview14101"
     pagecolor="#ffffff"
     bordercolor="#666666"
     borderopacity="1.0"
     inkscape:pageshadow="2"
     inkscape:pageopacity="0.0"
     inkscape:pagecheckerboard="0"
     inkscape:document-units="mm"
     showgrid="false"
     units="px"
     inkscape:zoom="3.4368883"
     inkscape:cx="89.470468"
     inkscape:cy="112.89282"
     inkscape:window-width="1920"
     inkscape:window-height="1019"
     inkscape:window-x="0"
     inkscape:window-y="0"
     inkscape:window-maximized="1"
     inkscape:current-layer="layer1" />
  <defs
     id="defs14096" />
  <g
     inkscape:label="Capa 1"
     inkscape:groupmode="layer"
     id="layer1">
    <text
       xml:space="preserve"
       style="font-size:14.3196px;line-height:1.25;font-family:'Open Sans';-inkscape-font-specification:'Open Sans';letter-spacing:-0.805485px;stroke-width:0.268495"
       x="-0.5194447"
       y="50.312386"
       id="text5871-6"
       inkscape:export-filename="/home/cdx/trabajo/psicologia/2023_sem_2_metodo/coevaluacion/logo.png"
       inkscape:export-xdpi="240.77"
       inkscape:export-ydpi="240.77"
       transform="scale(0.95299273,1.049326)"><tspan
         sodipodi:role="line"
         id="tspan5869-2"
         style="font-style:normal;font-variant:normal;font-weight:normal;font-stretch:normal;font-family:Montserrat;-inkscape-font-specification:Montserrat;stroke-width:0.268495"
         x="-0.5194447"
         y="50.312386"
         dx="0"
         rotate="0 0 0 0 0 0 0">COEVAL</tspan></text>
    <path
       style="fill:#5599ff;stroke-width:0.0907549"
       d="M 9.0606173,39.425298 C 7.86086,39.275488 7.9635189,39.986574 7.9042347,31.415367 7.8564797,24.511078 7.8564797,24.511078 6.6591904,24.54599 5.3826114,24.583214 4.9264306,24.494955 4.7202662,24.170862 4.5571427,23.914428 4.623187,10.198753 4.7884712,10.006463 5.0377226,9.7164873 8.5803025,8.7926873 9.8307404,8.6915882 c 0.4400126,-0.035576 0.8000236,-0.078338 0.8000236,-0.095029 0,-0.01669 -0.157024,-0.2978518 -0.348942,-0.6248026 -2.4455537,-4.1662254 1.913662,-7.7111263 7.484272,-6.0861887 2.346092,0.6843502 2.993436,4.1337511 1.213013,6.4635539 -0.203684,0.2665285 -0.203684,0.2665285 0.715932,0.3867952 0.974581,0.1274554 4.258943,0.9969375 4.567501,1.209173 0.233319,0.160482 0.383194,13.799017 0.15605,14.200371 -0.205848,0.363718 -0.644187,0.445293 -2.082212,0.387503 -1.319709,-0.05304 -1.319709,-0.05304 -1.344951,7.026573 -0.03148,8.828349 0.377071,7.867601 -3.355064,7.889787 -3.283091,0.01951 -3.001749,0.394008 -3.030793,-4.03423 -0.04694,-7.157403 -0.105604,-8.904153 -0.29903,-8.904153 -0.170713,0 -0.173544,0.07936 -0.216222,6.064129 -0.04917,6.895108 3.27e-4,6.46912 -0.780417,6.718012 -0.447832,0.142766 -3.4233381,0.235351 -4.2492837,0.132216 z M 14.846957,33.528 c -0.01406,-0.978626 -0.02553,-0.150861 -0.0255,1.839479 2.7e-5,1.990339 0.01151,2.791033 0.02553,1.779323 0.01402,-1.011711 0.01399,-2.640173 -4.5e-5,-3.618802 z m -1.016106,-0.974713 c 0,-5.310411 0.01523,-5.997907 0.135913,-6.130775 0.195067,-0.214785 0.523801,-0.184848 0.680827,0.062 0.110671,0.173976 0.134639,0.182453 0.134639,0.04762 0,-0.464454 -0.884321,-0.65677 -1.236696,-0.268949 -0.142925,0.157302 -0.197953,12.012045 -0.0571,12.301829 0.31689,0.651974 0.342417,0.203821 0.342417,-6.011725 z m 6.917996,-1.061827 c -0.0029,-6.614526 -0.01223,-7.039152 -0.152398,-7.009724 -0.267681,0.0562 -0.446276,13.553763 -0.18641,14.088411 0.322209,0.662913 0.342139,0.246531 0.338808,-7.078687 z M 5.2807795,21.036448 C 5.5191665,3.5960497 4.64865,16.025084 4.8365537,23.939688 c 0.00131,0.05238 0.4315694,-0.243098 0.4315694,-0.243098 l 0.01265,-2.660142 z M 24.348106,18.311465 c 0.06163,-7.03349 0.01863,-8.3116797 -0.277563,-8.249336 -0.40278,0.08478 -0.42765,12.601273 -0.02684,13.512909 0.265344,0.603537 0.250794,0.855135 0.30441,-5.263573 z M 9.2368323,15.931187 c 0.00958,-1.454803 6.538e-4,-1.541981 -0.1754533,-1.714169 -0.1842205,-0.180102 -0.1848449,-0.17991 -0.086491,0.0266 0.064564,0.135551 0.103669,0.948304 0.1122628,2.333174 0.00909,1.465664 0.0328,1.933068 0.07638,1.506158 0.034755,-0.340453 0.067741,-1.308745 0.073301,-2.151759 z M 19.962524,14.17845 c 0.120696,-0.238079 0.120696,-0.238079 -0.06486,-0.05666 -0.180442,0.176407 -0.185094,0.24081 -0.16856,2.333174 0.017,2.151759 0.017,2.151759 0.06487,0.05666 0.03503,-1.533406 0.08022,-2.158923 0.168556,-2.333174 z M 7.1279628,9.5568704 c -4.7519752,-6.3712469 -2.3759876,-3.1856235 0,0 z M 10.234609,5.5084429 c 0.463386,-1.7181099 1.908004,-2.5605217 4.525997,-2.6392777 1.910018,-0.1429349 4.427909,0.8145521 4.519044,2.7375215 0,0.3825481 0.222512,0.5195261 0.339361,0.2089108 C 19.894387,5.0835749 19.593743,3.3779182 19.080922,2.7629022 18.225361,1.7368308 13.91088,1.4361813 11.930702,2.2646469 10.667427,2.7931749 9.7658729,4.1651336 9.7658729,5.5590243 c 0,0.7996557 0.2466001,0.7730453 0.4687361,-0.050581 z"
       id="path1501"
       sodipodi:nodetypes="ssssssssssssssssssssscssccscssssscssccccccsssssscsssssssssssccsccsssss" />
    <path
       style="fill:#0044aa;stroke-width:0.0907549"
       d="m 8.5809105,39.313688 c -0.4813052,-0.160565 -0.3844192,-0.250404 0.1728089,-0.160231 0.6767903,0.10952 4.3491996,0.02466 4.6621686,-0.107752 0.537268,-0.227282 0.530102,-0.128279 0.466376,-6.443964 -0.06089,-6.033902 -0.05055,-6.2388 0.314024,-6.227614 0.19674,0.006 0.19674,0.006 0.0023,0.09216 -0.194599,0.08613 -0.194599,0.08613 -0.194599,6.050584 0,6.610324 0.01098,6.475677 -0.547555,6.717813 -0.342902,0.148659 -4.4662848,0.215476 -4.8753644,0.079 z M 15.240555,39.3135 c -0.48139,-0.160309 -0.38438,-0.25023 0.172805,-0.160176 1.802596,0.291342 5.068398,-0.02138 5.296555,-0.507192 0.31474,-0.670166 0.08564,-14.357592 -0.246522,-14.728689 -0.275608,-0.307909 -0.275608,-0.307909 -0.269077,6.713826 0.0036,3.861957 -0.01082,7.180472 -0.03204,7.374485 -0.04177,0.382005 -0.167467,0.635922 -1.186453,0.73198 -1.20317,0.02199 -1.532603,0.0068 -2.377325,-0.08587 -0.594611,-0.06546 -1.143968,-0.122603 -1.22079,-0.126991 -0.172995,-0.0099 -0.166107,0.20587 -0.213604,-6.691798 -0.04348,-6.315045 -0.01262,-6.06918 -0.767498,-6.112895 -0.548759,-0.03178 -0.723591,0.07468 -0.985431,0.600045 -0.127937,0.256699 -0.142568,0.881301 -0.14317,6.111656 -3.27e-4,3.204155 -0.02553,5.853099 -0.0559,5.886543 -0.234051,0.257714 -3.2207534,0.403223 -4.4975612,0.219119 -0.1192452,-0.0172 -0.1396821,-0.124759 -0.1221806,-0.643056 0.011572,-0.342322 -0.00876,-0.767911 -0.04513,-0.945753 -0.077583,-0.379219 -0.099684,-12.235784 -0.023994,-12.8662 0.051462,-0.428542 0.051462,-0.428542 -0.2293864,-0.04762 -0.2808483,0.380926 -0.2808483,0.380926 -0.2386505,7.666142 0.023209,4.006868 0.011833,7.092372 -0.025301,6.856675 -0.037118,-0.235701 -0.070376,-3.502033 -0.073899,-7.258523 -0.00641,-6.829975 -0.00641,-6.829975 -1.3831279,-6.809055 -1.9649937,0.02986 -1.865705,0.145599 -1.8697388,-2.179574 -0.00327,-1.799234 -0.00327,-1.799234 0.023667,-0.09209 0.016639,1.060689 0.062906,1.755044 0.1221479,1.833642 0.1260967,0.167294 1.9040028,0.126273 1.9558929,-0.04512 0.024255,-0.08015 0.081483,-0.08563 0.1950829,-0.01869 0.1870546,0.110228 0.3093463,-0.02802 0.1486781,-0.168081 -0.058938,-0.05138 -1.7563709,-0.138021 -1.7563709,-0.138021 0,0 0.016148,-2.441394 0.015887,-3.686373 -1.962e-4,-0.898214 0.084863,-2.668241 0.084863,-2.668241 l 3.1982665,0.02812 c 0,0 0.029256,-0.635233 0.049991,-2.152157 0.012552,-0.919947 0.035686,-1.098932 0.1307287,-1.01208 0.085213,0.07787 0.1154598,0.422784 0.1154598,1.316596 0,0.666095 0.02821,2.000042 0.062674,2.964326 0.078845,2.205651 0.1678631,1.600191 0.1972731,-1.341783 0.021836,-2.184411 0.1684645,-2.630012 0.1684645,-2.630012 l 4.9152349,-0.0061 5.207997,0.11247 c 0,0 0.07343,0.773831 0.08267,2.095095 0.0203,2.905655 0.110246,3.821506 0.201925,2.056335 0.03375,-0.649846 0.06137,-1.857688 0.06137,-2.684092 0,-1.950726 0.211758,1.549413 0.211758,1.549413 l 3.515892,-0.01804 c 0,0 0.07549,0.692148 0.114169,2.409737 0.08287,3.679823 0.151999,3.411967 -0.927284,3.59267 -0.389989,0.0653 -0.757293,0.160754 -0.816227,0.212131 -0.160672,0.140057 -0.03838,0.278309 0.148675,0.168081 0.113599,-0.06694 0.170821,-0.06146 0.195086,0.01869 0.05189,0.171399 1.829793,0.212419 1.955889,0.04513 0.05924,-0.0786 0.105497,-0.772952 0.122148,-1.833642 0.0268,-1.707141 0.0268,-1.707141 0.02367,0.09209 -0.0041,2.331671 0.113845,2.200493 -1.977621,2.200493 -1.485055,0 -1.485055,0 -1.528299,7.094758 -0.04735,7.768444 -0.02014,7.397769 -0.560395,7.634244 -0.329888,0.144393 -4.719916,0.207352 -5.121991,0.07345 z m 5.509407,-15.457387 c 0,-0.01977 -0.06811,-0.09477 -0.151355,-0.166655 -0.137178,-0.118456 -0.140235,-0.115088 -0.03266,0.03596 0.112988,0.158632 0.184011,0.209079 0.184011,0.1307 z M 14.67487,38.462499 c -0.03526,-0.288074 -0.05812,-3.095024 -0.05079,-6.237667 0.01334,-5.713895 0.01334,-5.713895 0.08567,0 0.07847,6.197956 0.0733,7.121447 -0.03488,6.237667 z M 4.6877668,11.178651 c 6.538e-4,-0.261886 0.017456,-0.357719 0.037328,-0.212961 0.019875,0.144758 0.019352,0.359029 -0.00131,0.476158 -0.020529,0.117129 -0.036795,-0.0013 -0.036148,-0.263197 z m 19.7194632,0 c 6.54e-4,-0.261886 0.01746,-0.357719 0.03733,-0.212961 0.01987,0.144758 0.01935,0.359029 -0.0013,0.476158 -0.02053,0.117129 -0.03679,-0.0013 -0.03614,-0.263197 z M 10.36389,9.0078814 c -6.90926,-6.0052543 -3.45463,-3.0026271 0,0 z"
       id="path1499"
       sodipodi:nodetypes="cscsscsscccssssscccsssccsccssscssccsssscscccsscscccsssccssssssscsssccssssssssscsccccsccccc" />
    <ellipse
       id="path1674"
       style="fill:#ffffff;stroke:#008000;stroke-width:0.0907549"
       cx="4.2926774"
       cy="9.7840099"
       rx="0.0020479616"
       ry="0.0022549797" />
    <ellipse
       id="path1676"
       style="fill:#ffffff;stroke:#008000;stroke-width:0.0907549"
       cx="4.2926774"
       cy="9.7840099"
       rx="0.0020479616"
       ry="0.0022549797" />
    <path
       style="fill:none;stroke:#b3b3b3;stroke-width:0.296705;stroke-linecap:butt;stroke-linejoin:miter;stroke-miterlimit:4;stroke-dasharray:none;stroke-opacity:1"
       d="M 9.6510179,7.9823975 C 8.9821415,6.5676725 8.7128895,5.1228821 9.2614746,3.66767 10.085109,1.9853749 12.834048,0.98414707 14.41986,0.95361782 c 1.585812,-0.0305292 2.714667,0.0134133 4.220475,0.58398148 1.406468,0.5523266 1.996246,2.3521432 1.989277,3.8033417 -0.007,1.4511985 -1.536392,2.8895907 0.130078,2.9925168 1.66647,0.1029261 3.439568,0.5148448 3.952751,1.2174708 0.513184,0.7026264 0.178759,2.9377824 0.2615,4.3938524 0.0082,3.255502 -0.01252,6.51106 -0.01631,9.766585 0.283421,2.139516 -2.661051,0.60831 -3.287115,1.89012 -0.353146,2.137223 -0.136619,4.345261 -0.217687,6.511768 -0.0268,2.268033 0.241762,5.127889 -0.07207,6.690527 -0.313831,1.562638 -2.064396,1.147459 -4.082133,1.200728 -2.017737,0.05327 -5.68505,0.170208 -8.4927158,-0.04003 C 6.9575043,39.743563 7.4493545,37.975458 7.3510806,35.63764 7.2528067,33.299822 7.3096623,29.31297 7.2783483,26.065964 6.8938836,24.272517 4.6307623,25.897556 4.1911452,24.119588 3.7908808,20.100107 3.9547758,16.034317 4.0725173,11.999805 4.05718,7.9876298 4.5771727,9.5218983 9.6510179,7.9823975 Z"
       id="path1746"
       sodipodi:nodetypes="cczczzzscsczzczcscc" />
    <path
       style="fill:none;stroke:#000000;stroke-width:0.365;stroke-linecap:butt;stroke-linejoin:miter;stroke-miterlimit:4;stroke-dasharray:none;stroke-opacity:1"
       d="m 4.7092742,23.866533 0.063847,-13.831836 c 0,0 1.3488972,-0.5632514 2.8312123,-0.9063353 1.4823151,-0.3430839 3.0994375,-0.4776211 3.0994375,-0.4776211 0,0 -1.1213115,-1.8160444 -1.1217163,-3.235262 -3.968e-4,-1.4192173 0.6509763,-1.9668548 1.2164253,-2.4691797 0.565449,-0.5023251 1.994193,-1.4869834 4.229281,-1.4474732 2.235089,0.03951 2.932377,0.1850792 3.97895,1.156749 1.046573,0.9716699 1.148627,2.0732292 0.920941,3.3904452 -0.227686,1.3172159 -1.103729,2.4982243 -1.103729,2.4982243 0,0 1.866212,0.4052893 3.03577,0.6548017 1.169559,0.2495124 2.383468,0.7195886 2.383468,0.7195886 0,0 0.196075,6.4557185 0.228055,7.6710365 0.03198,1.215318 0.05194,3.858733 -0.02394,4.832657 -0.07589,0.973924 0.251927,1.502175 -0.11712,1.874302 -0.369047,0.372127 -0.836542,0.207424 -1.260598,0.207424 -0.424056,0 -0.855198,-0.21834 -1.38652,0.07821 -0.531322,0.296552 -0.571033,0.602714 -0.606101,1.116743 -0.03507,0.514029 -0.123074,9.17608 -0.123074,9.17608 0,0 -0.01624,3.635689 -0.258965,4.039848 -0.242726,0.404157 -0.189381,0.260403 -0.919041,0.500367 -0.72966,0.239967 -4.022326,0.01408 -4.535344,-0.101777 -0.513019,-0.115859 -0.449126,-0.301604 -0.565638,-0.85103 -0.116513,-0.549423 -0.113935,-9.8621 -0.113935,-9.8621 0,0 -0.114975,-1.729499 -0.157294,-2.033905 -0.04232,-0.304409 -0.0828,-0.02847 -0.189784,-0.04754 -0.106981,-0.01908 -0.376085,4.818938 -0.383006,6.034336 -0.0069,1.215395 0.121532,5.837208 0.121532,5.837208 0,0 0.04332,0.381913 -0.302087,0.722757 -0.345405,0.340844 -3.35639,0.311143 -3.9416229,0.316051 -0.4923527,0.0041 -0.66258,0.04618 -1.1277679,-0.115614 -0.5590601,-0.194441 -0.4426365,-0.715535 -0.5069914,-1.272795 -0.064355,-0.55726 -0.1523473,-9.065317 -0.1523473,-9.065317 0,0 0.076021,-2.540393 -0.1323878,-3.354808 C 7.5807757,24.806353 7.5915421,24.795179 7.300115,24.583474 7.0086881,24.37177 6.919492,24.571634 6.2645419,24.571634 c -0.6549504,0 -1.2061256,-0.02696 -1.4240253,-0.234187 C 4.6226171,24.130221 4.709274,23.866534 4.709274,23.866534 Z"
       id="path3083"
       sodipodi:nodetypes="ccsccsssscscscsssscsssscscccsssscsssscc" />
    <path
       style="fill:#80b3ff;stroke-width:0.0907549"
       d="m 45.258328,39.236823 c 1.199757,-0.14981 1.097098,0.561276 1.156382,-8.009931 0.04776,-6.904289 0.04776,-6.904289 1.245045,-6.869377 1.276579,0.03722 1.732759,-0.05103 1.938924,-0.375128 0.163123,-0.256434 0.09708,-13.972108 -0.0682,-14.1643982 -0.249252,-0.289975 -3.791832,-1.213775 -5.042269,-1.314874 -0.440013,-0.03558 -0.800024,-0.07834 -0.800024,-0.09503 0,-0.01669 0.157024,-0.297852 0.348942,-0.624803 2.445554,-4.1662254 -1.913662,-7.71112638 -7.484272,-6.0861887 -2.346092,0.6843502 -2.993436,4.1337507 -1.213013,6.4635537 0.203684,0.266529 0.203684,0.266529 -0.715932,0.386795 -0.974581,0.127456 -4.258943,0.996938 -4.567501,1.209173 -0.233319,0.160482 -0.383194,13.7990162 -0.15605,14.2003702 0.205848,0.363718 0.644187,0.445293 2.082212,0.387503 1.319709,-0.05304 1.319709,-0.05304 1.344951,7.026573 0.03148,8.828349 -0.377071,7.867601 3.355064,7.889787 3.283091,0.01951 3.001749,0.394008 3.030793,-4.03423 0.04694,-7.157403 0.105604,-8.904153 0.29903,-8.904153 0.170713,0 0.173544,0.07936 0.216222,6.064129 0.04917,6.895108 -3.27e-4,6.46912 0.780417,6.718012 0.447832,0.142766 3.423338,0.235351 4.249284,0.132216 z m -5.78634,-5.897298 c 0.01406,-0.978626 0.02553,-0.150861 0.0255,1.839479 -2.7e-5,1.990339 -0.01151,2.791033 -0.02553,1.779323 -0.01402,-1.011711 -0.01399,-2.640173 4.5e-5,-3.618802 z m 1.016106,-0.974713 c 0,-5.310411 -0.01523,-5.997907 -0.135913,-6.130775 -0.195067,-0.214785 -0.523801,-0.184848 -0.680827,0.062 -0.110671,0.173976 -0.134639,0.182453 -0.134639,0.04762 0,-0.464454 0.884321,-0.65677 1.236696,-0.268949 0.142925,0.157302 0.197953,12.012045 0.0571,12.301829 -0.31689,0.651974 -0.342417,0.203821 -0.342417,-6.011725 z m -6.917996,-1.061827 c 0.0029,-6.614526 0.01223,-7.039152 0.152398,-7.009724 0.267681,0.0562 0.446276,13.553763 0.18641,14.088411 -0.322209,0.662913 -0.342139,0.246531 -0.338808,-7.078687 z M 49.038165,20.847973 c -0.238386,-17.4403971 0.63213,-5.011364 0.444226,2.90324 -0.0013,0.05238 -0.431569,-0.243098 -0.431569,-0.243098 l -0.01265,-2.660142 z M 29.970839,18.12299 c -0.06163,-7.03349 -0.01863,-8.3116782 0.277563,-8.2493352 0.40278,0.08478 0.42765,12.6012722 0.02684,13.5129082 -0.265344,0.603537 -0.250794,0.855135 -0.30441,-5.263573 z m 15.111274,-2.380278 c -0.0096,-1.454803 -6.54e-4,-1.541981 0.175453,-1.714169 0.18422,-0.180102 0.184845,-0.17991 0.08649,0.0266 -0.06456,0.135551 -0.103669,0.948304 -0.112263,2.333174 -0.0091,1.465664 -0.0328,1.933068 -0.07638,1.506158 -0.03475,-0.340453 -0.06774,-1.308745 -0.0733,-2.151759 z M 34.356421,13.989975 c -0.120696,-0.238079 -0.120696,-0.238079 0.06486,-0.05666 0.180442,0.176407 0.185094,0.24081 0.16856,2.333174 -0.017,2.151759 -0.017,2.151759 -0.06487,0.05666 -0.03503,-1.533406 -0.08022,-2.158923 -0.168556,-2.333174 z M 47.190982,9.3683968 c 4.751975,-6.3712471 2.375988,-3.185624 0,0 z M 44.084336,5.3199688 C 43.62095,3.6018592 42.176332,2.7594474 39.558339,2.6806914 37.648321,2.5377565 35.13043,3.4952435 35.039295,5.4182128 c 0,0.382548 -0.222512,0.519526 -0.339361,0.208911 -0.275376,-0.732023 0.02527,-2.4376794 0.538089,-3.0526954 0.855561,-1.0260714 5.170042,-1.3267209 7.15022,-0.4982553 1.263275,0.528528 2.164829,1.9004867 2.164829,3.2943777 0,0.799655 -0.2466,0.773045 -0.468736,-0.05058 z"
       id="path1501-3"
       sodipodi:nodetypes="ssssssssssssssssssssscssccscssssscssccccccsssssscsssssssssssccsccsssss" />
    <path
       style="fill:#0044aa;stroke-width:0.0907549"
       d="m 45.738034,39.125213 c 0.481306,-0.160565 0.38442,-0.250404 -0.172808,-0.160231 -0.676791,0.10952 -4.3492,0.02466 -4.662169,-0.107752 -0.537268,-0.227282 -0.530102,-0.128279 -0.466376,-6.443964 0.06089,-6.033902 0.05055,-6.2388 -0.314024,-6.227614 -0.19674,0.006 -0.19674,0.006 -0.0023,0.09216 0.194599,0.08613 0.194599,0.08613 0.194599,6.050584 0,6.610324 -0.01098,6.475677 0.547555,6.717813 0.342902,0.148659 4.466285,0.215476 4.875364,0.079 z m -6.659644,-1.88e-4 c 0.48139,-0.160309 0.38438,-0.25023 -0.172805,-0.160176 -1.802596,0.291342 -5.068398,-0.02138 -5.296555,-0.507192 -0.31474,-0.670166 -0.08564,-14.357592 0.246522,-14.728689 0.275608,-0.307909 0.275608,-0.307909 0.269077,6.713826 -0.0036,3.861957 0.01082,7.180472 0.03204,7.374485 0.04177,0.382005 0.167467,0.635922 1.186453,0.73198 1.20317,0.02199 1.532603,0.0068 2.377325,-0.08587 0.594611,-0.06546 1.143968,-0.122603 1.22079,-0.126991 0.172995,-0.0099 0.166107,0.20587 0.213604,-6.691798 0.04348,-6.315045 0.01262,-6.06918 0.767498,-6.112895 0.548759,-0.03178 0.723591,0.07468 0.985431,0.600045 0.127937,0.256699 0.142568,0.881301 0.14317,6.111656 3.27e-4,3.204155 0.02553,5.853099 0.0559,5.886543 0.234051,0.257714 3.220753,0.403223 4.497561,0.219119 0.119245,-0.0172 0.139682,-0.124759 0.122181,-0.643056 -0.01157,-0.342322 0.0088,-0.767911 0.04513,-0.945753 0.07758,-0.379219 0.09968,-12.235784 0.02399,-12.8662 -0.05146,-0.428542 -0.05146,-0.428542 0.229386,-0.04762 0.280848,0.380926 0.280848,0.380926 0.238651,7.666142 -0.02321,4.006868 -0.01183,7.092372 0.0253,6.856675 0.03712,-0.235701 0.07038,-3.502033 0.0739,-7.258523 0.0064,-6.829975 0.0064,-6.829975 1.383128,-6.809055 1.964993,0.02986 1.865705,0.145599 1.869738,-2.179574 0.0033,-1.799234 0.0033,-1.799234 -0.02367,-0.09209 -0.01664,1.060689 -0.06291,1.755044 -0.122148,1.833642 -0.126096,0.167294 -1.904002,0.126273 -1.955892,-0.04512 -0.02426,-0.08015 -0.08148,-0.08563 -0.195083,-0.01869 -0.187055,0.110228 -0.309347,-0.02802 -0.148678,-0.168081 0.05894,-0.05138 1.75637,-0.138021 1.75637,-0.138021 0,0 -0.01615,-2.441394 -0.01589,-3.686373 1.97e-4,-0.898214 -0.08486,-2.668241 -0.08486,-2.668241 l -3.198266,0.02812 c 0,0 -0.02926,-0.635233 -0.04999,-2.152157 -0.01255,-0.919947 -0.03569,-1.098932 -0.130729,-1.01208 -0.08521,0.07787 -0.11546,0.422784 -0.11546,1.316596 0,0.666095 -0.02821,2.000042 -0.06267,2.964326 -0.07885,2.205651 -0.167863,1.600191 -0.197273,-1.341783 -0.02184,-2.184411 -0.168464,-2.630012 -0.168464,-2.630012 l -4.915235,-0.0061 -5.207997,0.11247 c 0,0 -0.07343,0.773831 -0.08267,2.095095 -0.0203,2.905655 -0.110246,3.821506 -0.201925,2.056335 -0.03375,-0.649846 -0.06137,-1.857688 -0.06137,-2.684092 0,-1.950726 -0.211758,1.549413 -0.211758,1.549413 l -3.515892,-0.01804 c 0,0 -0.07549,0.692148 -0.114169,2.409737 -0.08287,3.679823 -0.151999,3.411967 0.927284,3.59267 0.389989,0.0653 0.757293,0.160754 0.816227,0.212131 0.160672,0.140057 0.03838,0.278309 -0.148675,0.168081 -0.113599,-0.06694 -0.170821,-0.06146 -0.195086,0.01869 -0.05189,0.171399 -1.829793,0.212419 -1.955889,0.04513 -0.05924,-0.0786 -0.105497,-0.772952 -0.122148,-1.833642 -0.0268,-1.707141 -0.0268,-1.707141 -0.02367,0.09209 0.0041,2.331671 -0.113845,2.200493 1.977621,2.200493 1.485055,0 1.485055,0 1.528299,7.094758 0.04735,7.768444 0.02014,7.397769 0.560395,7.634244 0.329888,0.144393 4.719916,0.207352 5.121991,0.07345 z M 33.568983,23.667638 c 0,-0.01977 0.06811,-0.09477 0.151355,-0.166655 0.137178,-0.118456 0.140235,-0.115088 0.03266,0.03596 -0.112988,0.158632 -0.184011,0.209079 -0.184011,0.1307 z m 6.075092,14.606386 c 0.03526,-0.288074 0.05812,-3.095024 0.05079,-6.237667 -0.01334,-5.713895 -0.01334,-5.713895 -0.08567,0 -0.07847,6.197956 -0.0733,7.121447 0.03488,6.237667 z m 9.987103,-27.283848 c -6.54e-4,-0.261886 -0.01746,-0.357719 -0.03733,-0.212961 -0.01988,0.144758 -0.01935,0.359029 0.0013,0.476158 0.02053,0.117129 0.03679,-0.0013 0.03615,-0.263197 z m -19.719463,0 c -6.54e-4,-0.261886 -0.01746,-0.357719 -0.03733,-0.212961 -0.01987,0.144758 -0.01935,0.359029 0.0013,0.476158 0.02053,0.117129 0.03679,-0.0013 0.03614,-0.263197 z m 14.04334,-2.1707682 c 6.90926,-6.0052545 3.45463,-3.002627 0,0 z"
       id="path1499-6"
       sodipodi:nodetypes="cscsscsscccssssscccsssccsccssscssccsssscscccsscscccsssccssssssscsssccssssssssscsccccsccccc" />
    <ellipse
       id="path1674-7"
       style="fill:#ffffff;stroke:#008000;stroke-width:0.0907549"
       cx="-50.026268"
       cy="9.5955362"
       rx="0.0020479616"
       ry="0.0022549797"
       transform="scale(-1,1)" />
    <ellipse
       id="path1676-5"
       style="fill:#ffffff;stroke:#008000;stroke-width:0.0907549"
       cx="-50.026268"
       cy="9.5955362"
       rx="0.0020479616"
       ry="0.0022549797"
       transform="scale(-1,1)" />
    <path
       style="fill:none;stroke:#b3b3b3;stroke-width:0.296705;stroke-linecap:butt;stroke-linejoin:miter;stroke-miterlimit:4;stroke-dasharray:none;stroke-opacity:1"
       d="m 44.667927,7.7939238 c 0.668877,-1.414725 0.938128,-2.859515 0.389543,-4.3147276 -0.823634,-1.6822951 -3.572573,-2.68352298 -5.158385,-2.71405228 -1.585812,-0.030529 -2.714667,0.013413 -4.220475,0.58398158 -1.406468,0.5523266 -1.996246,2.3521432 -1.989277,3.8033413 0.007,1.451199 1.536392,2.889591 -0.130078,2.992517 -1.66647,0.102926 -3.439568,0.514845 -3.952751,1.217471 -0.513184,0.7026262 -0.178759,2.9377812 -0.2615,4.3938512 -0.0082,3.255502 0.01252,6.51106 0.01631,9.766585 -0.283421,2.139516 2.661051,0.60831 3.287115,1.89012 0.353146,2.137223 0.136619,4.345261 0.217687,6.511768 0.0268,2.268033 -0.241762,5.127889 0.07207,6.690527 0.313831,1.562638 2.064396,1.147459 4.082133,1.200728 2.017737,0.05327 5.68505,0.170208 8.492716,-0.04003 1.848406,-0.220916 1.356556,-1.989021 1.454829,-4.326839 0.09827,-2.337818 0.04142,-6.32467 0.07273,-9.571676 0.384464,-1.793447 2.647586,-0.168408 3.087203,-1.946376 0.400264,-4.019481 0.236369,-8.085271 0.118628,-12.119783 0.01534,-4.0121742 -0.504656,-2.4779052 -5.578501,-4.0174062 z"
       id="path1746-3"
       sodipodi:nodetypes="cczczzzscsczzczcscc" />
    <path
       style="fill:none;stroke:#000000;stroke-width:0.365;stroke-linecap:butt;stroke-linejoin:miter;stroke-miterlimit:4;stroke-dasharray:none;stroke-opacity:1"
       d="M 49.609671,23.678058 49.545821,9.8462228 c 0,0 -1.348897,-0.563251 -2.831213,-0.906335 -1.482315,-0.343084 -3.099437,-0.477621 -3.099437,-0.477621 0,0 1.121312,-1.816044 1.121716,-3.235262 C 44.737284,3.8077878 44.085911,3.26015 43.520462,2.7578251 42.955013,2.2555 41.526269,1.2708417 39.291181,1.3103519 c -2.235089,0.03951 -2.932377,0.1850792 -3.97895,1.156749 -1.046573,0.9716699 -1.148627,2.0732289 -0.920941,3.3904449 0.227686,1.317216 1.103729,2.498225 1.103729,2.498225 0,0 -1.866212,0.405289 -3.03577,0.654801 -1.169559,0.249513 -2.383468,0.719589 -2.383468,0.719589 0,0 -0.196075,6.4557172 -0.228055,7.6710352 -0.03198,1.215318 -0.05194,3.858733 0.02394,4.832657 0.07589,0.973924 -0.251927,1.502175 0.11712,1.874302 0.369047,0.372127 0.836542,0.207424 1.260598,0.207424 0.424056,0 0.855198,-0.21834 1.38652,0.07821 0.531322,0.296552 0.571033,0.602714 0.606101,1.116743 0.03507,0.514029 0.123074,9.17608 0.123074,9.17608 0,0 0.01624,3.635689 0.258965,4.039848 0.242726,0.404157 0.189381,0.260403 0.919041,0.500367 0.72966,0.239967 4.022326,0.01408 4.535344,-0.101777 0.513019,-0.115859 0.449126,-0.301604 0.565638,-0.85103 0.116513,-0.549423 0.113935,-9.8621 0.113935,-9.8621 0,0 0.114975,-1.729499 0.157294,-2.033905 0.04232,-0.304409 0.0828,-0.02847 0.189784,-0.04754 0.106981,-0.01908 0.376085,4.818938 0.383006,6.034336 0.0069,1.215395 -0.121532,5.837208 -0.121532,5.837208 0,0 -0.04332,0.381913 0.302087,0.722757 0.345405,0.340844 3.35639,0.311143 3.941623,0.316051 0.492353,0.0041 0.66258,0.04618 1.127768,-0.115614 0.55906,-0.194441 0.442636,-0.715535 0.506991,-1.272795 0.06435,-0.55726 0.152348,-9.065317 0.152348,-9.065317 0,0 -0.07602,-2.540393 0.132387,-3.354808 0.208408,-0.814415 0.197642,-0.825589 0.489069,-1.037294 0.291427,-0.211704 0.380623,-0.01184 1.035573,-0.01184 0.65495,0 1.206126,-0.02696 1.424025,-0.234187 0.2179,-0.207226 0.131243,-0.470913 0.131243,-0.470913 z"
       id="path3083-5"
       sodipodi:nodetypes="ccsccsssscscscsssscsssscscccsssscsssscc" />
  </g>
</svg>
